<mxfile host="app.diagrams.net" agent="Mozilla/5.0 (Windows NT 10.0; Win64; x64) AppleWebKit/537.36 (KHTML, like Gecko) Chrome/130.0.0.0 Safari/537.36" version="24.8.4">
  <diagram name="Сторінка-1" id="z2n3EFh0K1hDPh4PE9u4">
    <mxGraphModel dx="1793" dy="1210" grid="0" gridSize="10" guides="1" tooltips="1" connect="1" arrows="1" fold="1" page="0" pageScale="1" pageWidth="827" pageHeight="1169" math="0" shadow="0">
      <root>
        <mxCell id="0" />
        <mxCell id="1" parent="0" />
        <mxCell id="cJkYCGwa2vcNiUKvJ4B1-3" value="" style="edgeStyle=none;curved=1;rounded=0;orthogonalLoop=1;jettySize=auto;html=1;fontSize=12;startSize=8;endSize=8;" edge="1" parent="1" source="cJkYCGwa2vcNiUKvJ4B1-1" target="cJkYCGwa2vcNiUKvJ4B1-2">
          <mxGeometry relative="1" as="geometry" />
        </mxCell>
        <mxCell id="cJkYCGwa2vcNiUKvJ4B1-1" value="&lt;font style=&quot;font-size: 20px;&quot;&gt;Start&lt;/font&gt;" style="ellipse;whiteSpace=wrap;html=1;" vertex="1" parent="1">
          <mxGeometry x="193" y="54" width="120" height="80" as="geometry" />
        </mxCell>
        <mxCell id="cJkYCGwa2vcNiUKvJ4B1-5" value="" style="edgeStyle=none;curved=1;rounded=0;orthogonalLoop=1;jettySize=auto;html=1;fontSize=12;startSize=8;endSize=8;" edge="1" parent="1" source="cJkYCGwa2vcNiUKvJ4B1-2" target="cJkYCGwa2vcNiUKvJ4B1-4">
          <mxGeometry relative="1" as="geometry" />
        </mxCell>
        <mxCell id="cJkYCGwa2vcNiUKvJ4B1-2" value="double epsilon = 0.0001;" style="whiteSpace=wrap;html=1;" vertex="1" parent="1">
          <mxGeometry x="193" y="163" width="120" height="60" as="geometry" />
        </mxCell>
        <mxCell id="cJkYCGwa2vcNiUKvJ4B1-7" value="" style="edgeStyle=none;curved=1;rounded=0;orthogonalLoop=1;jettySize=auto;html=1;fontSize=12;startSize=8;endSize=8;" edge="1" parent="1" source="cJkYCGwa2vcNiUKvJ4B1-4" target="cJkYCGwa2vcNiUKvJ4B1-6">
          <mxGeometry relative="1" as="geometry" />
        </mxCell>
        <mxCell id="cJkYCGwa2vcNiUKvJ4B1-4" value="double sum = 0.0;" style="whiteSpace=wrap;html=1;" vertex="1" parent="1">
          <mxGeometry x="193" y="252" width="120" height="60" as="geometry" />
        </mxCell>
        <mxCell id="cJkYCGwa2vcNiUKvJ4B1-9" value="" style="edgeStyle=none;curved=1;rounded=0;orthogonalLoop=1;jettySize=auto;html=1;fontSize=12;startSize=8;endSize=8;" edge="1" parent="1" source="cJkYCGwa2vcNiUKvJ4B1-6" target="cJkYCGwa2vcNiUKvJ4B1-8">
          <mxGeometry relative="1" as="geometry" />
        </mxCell>
        <mxCell id="cJkYCGwa2vcNiUKvJ4B1-6" value="double term;" style="whiteSpace=wrap;html=1;" vertex="1" parent="1">
          <mxGeometry x="193" y="335" width="120" height="60" as="geometry" />
        </mxCell>
        <mxCell id="cJkYCGwa2vcNiUKvJ4B1-13" value="" style="edgeStyle=none;curved=1;rounded=0;orthogonalLoop=1;jettySize=auto;html=1;fontSize=12;startSize=8;endSize=8;" edge="1" parent="1" source="cJkYCGwa2vcNiUKvJ4B1-8" target="cJkYCGwa2vcNiUKvJ4B1-12">
          <mxGeometry relative="1" as="geometry" />
        </mxCell>
        <mxCell id="cJkYCGwa2vcNiUKvJ4B1-8" value="&lt;font color=&quot;#1f1f1f&quot;&gt;int n = 1;&lt;/font&gt;" style="whiteSpace=wrap;html=1;" vertex="1" parent="1">
          <mxGeometry x="193" y="421" width="120" height="60" as="geometry" />
        </mxCell>
        <mxCell id="cJkYCGwa2vcNiUKvJ4B1-15" value="" style="edgeStyle=none;curved=1;rounded=0;orthogonalLoop=1;jettySize=auto;html=1;fontSize=12;startSize=8;endSize=8;" edge="1" parent="1" source="cJkYCGwa2vcNiUKvJ4B1-12" target="cJkYCGwa2vcNiUKvJ4B1-14">
          <mxGeometry relative="1" as="geometry" />
        </mxCell>
        <mxCell id="cJkYCGwa2vcNiUKvJ4B1-12" value="&lt;font color=&quot;#1f1f1f&quot;&gt;term = (1.0 / pow(2, n)) + (1.0 / pow(3, n));&lt;/font&gt;" style="whiteSpace=wrap;html=1;" vertex="1" parent="1">
          <mxGeometry x="133" y="513" width="240" height="60" as="geometry" />
        </mxCell>
        <mxCell id="cJkYCGwa2vcNiUKvJ4B1-17" value="" style="edgeStyle=none;curved=1;rounded=0;orthogonalLoop=1;jettySize=auto;html=1;fontSize=12;startSize=8;endSize=8;" edge="1" parent="1" source="cJkYCGwa2vcNiUKvJ4B1-14" target="cJkYCGwa2vcNiUKvJ4B1-16">
          <mxGeometry relative="1" as="geometry" />
        </mxCell>
        <mxCell id="cJkYCGwa2vcNiUKvJ4B1-14" value="sum += term;" style="whiteSpace=wrap;html=1;" vertex="1" parent="1">
          <mxGeometry x="193" y="605" width="120" height="60" as="geometry" />
        </mxCell>
        <mxCell id="cJkYCGwa2vcNiUKvJ4B1-19" value="" style="edgeStyle=none;curved=1;rounded=0;orthogonalLoop=1;jettySize=auto;html=1;fontSize=12;startSize=8;endSize=8;" edge="1" parent="1" source="cJkYCGwa2vcNiUKvJ4B1-16" target="cJkYCGwa2vcNiUKvJ4B1-18">
          <mxGeometry relative="1" as="geometry" />
        </mxCell>
        <mxCell id="cJkYCGwa2vcNiUKvJ4B1-16" value="n++" style="whiteSpace=wrap;html=1;" vertex="1" parent="1">
          <mxGeometry x="193" y="695" width="120" height="60" as="geometry" />
        </mxCell>
        <mxCell id="cJkYCGwa2vcNiUKvJ4B1-27" value="" style="edgeStyle=none;curved=1;rounded=0;orthogonalLoop=1;jettySize=auto;html=1;fontSize=12;startSize=8;endSize=8;" edge="1" parent="1" source="cJkYCGwa2vcNiUKvJ4B1-18" target="cJkYCGwa2vcNiUKvJ4B1-26">
          <mxGeometry relative="1" as="geometry" />
        </mxCell>
        <mxCell id="cJkYCGwa2vcNiUKvJ4B1-28" value="no" style="edgeLabel;html=1;align=center;verticalAlign=middle;resizable=0;points=[];fontSize=12;" vertex="1" connectable="0" parent="cJkYCGwa2vcNiUKvJ4B1-27">
          <mxGeometry x="-0.6036" relative="1" as="geometry">
            <mxPoint as="offset" />
          </mxGeometry>
        </mxCell>
        <mxCell id="cJkYCGwa2vcNiUKvJ4B1-18" value="&lt;code&gt;fabs(term) &amp;gt; epsilon&lt;/code&gt;?" style="rhombus;whiteSpace=wrap;html=1;" vertex="1" parent="1">
          <mxGeometry x="163.13" y="776" width="179.75" height="95" as="geometry" />
        </mxCell>
        <mxCell id="cJkYCGwa2vcNiUKvJ4B1-20" value="" style="endArrow=none;html=1;rounded=0;fontSize=12;startSize=8;endSize=8;curved=1;exitX=0;exitY=0.5;exitDx=0;exitDy=0;" edge="1" parent="1" source="cJkYCGwa2vcNiUKvJ4B1-18">
          <mxGeometry width="50" height="50" relative="1" as="geometry">
            <mxPoint x="180" y="748" as="sourcePoint" />
            <mxPoint x="115" y="824" as="targetPoint" />
          </mxGeometry>
        </mxCell>
        <mxCell id="cJkYCGwa2vcNiUKvJ4B1-25" value="yes" style="edgeLabel;html=1;align=center;verticalAlign=middle;resizable=0;points=[];fontSize=12;" vertex="1" connectable="0" parent="cJkYCGwa2vcNiUKvJ4B1-20">
          <mxGeometry x="-0.1677" y="2" relative="1" as="geometry">
            <mxPoint as="offset" />
          </mxGeometry>
        </mxCell>
        <mxCell id="cJkYCGwa2vcNiUKvJ4B1-22" value="" style="endArrow=none;html=1;rounded=0;fontSize=12;startSize=8;endSize=8;curved=1;" edge="1" parent="1">
          <mxGeometry width="50" height="50" relative="1" as="geometry">
            <mxPoint x="110" y="542" as="sourcePoint" />
            <mxPoint x="115" y="824" as="targetPoint" />
          </mxGeometry>
        </mxCell>
        <mxCell id="cJkYCGwa2vcNiUKvJ4B1-24" value="" style="endArrow=classic;html=1;rounded=0;fontSize=12;startSize=8;endSize=8;curved=1;entryX=0;entryY=0.5;entryDx=0;entryDy=0;" edge="1" parent="1" target="cJkYCGwa2vcNiUKvJ4B1-12">
          <mxGeometry width="50" height="50" relative="1" as="geometry">
            <mxPoint x="110" y="543" as="sourcePoint" />
            <mxPoint x="114" y="633" as="targetPoint" />
          </mxGeometry>
        </mxCell>
        <mxCell id="cJkYCGwa2vcNiUKvJ4B1-30" value="" style="edgeStyle=none;curved=1;rounded=0;orthogonalLoop=1;jettySize=auto;html=1;fontSize=12;startSize=8;endSize=8;" edge="1" parent="1" source="cJkYCGwa2vcNiUKvJ4B1-26" target="cJkYCGwa2vcNiUKvJ4B1-29">
          <mxGeometry relative="1" as="geometry" />
        </mxCell>
        <mxCell id="cJkYCGwa2vcNiUKvJ4B1-26" value="cout &amp;lt;&amp;lt; &quot;The sum of the series with accuracy up to&quot; &amp;lt;&amp;lt; epsilon &amp;lt;&amp;lt; &quot; is equal to: &quot; &amp;lt;&amp;lt; sum &amp;lt;&amp;lt; endl;" style="shape=parallelogram;perimeter=parallelogramPerimeter;whiteSpace=wrap;html=1;fixedSize=1;" vertex="1" parent="1">
          <mxGeometry x="24.259999999999998" y="901" width="457.5" height="60" as="geometry" />
        </mxCell>
        <mxCell id="cJkYCGwa2vcNiUKvJ4B1-29" value="End" style="ellipse;whiteSpace=wrap;html=1;" vertex="1" parent="1">
          <mxGeometry x="213" y="990" width="80" height="34" as="geometry" />
        </mxCell>
      </root>
    </mxGraphModel>
  </diagram>
</mxfile>
